<?xml version="1.0" encoding="UTF-8"?>
<svg xmlns="http://www.w3.org/2000/svg" xmlns:xlink="http://www.w3.org/1999/xlink" width="375pt" height="374.999991pt" viewBox="0 0 375 374.999991" version="1.1">
<defs>
<clipPath id="clip1">
  <path d="M 7.128906 74.894531 L 60.378906 74.894531 L 60.378906 300.644531 L 7.128906 300.644531 Z M 7.128906 74.894531 "/>
</clipPath>
<clipPath id="clip2">
  <path d="M 8 75 L 205 75 L 205 300 L 8 300 Z M 8 75 "/>
</clipPath>
<clipPath id="clip3">
  <path d="M -2.195312 98.683594 L 38.691406 64.566406 L 215.53125 276.46875 L 174.644531 310.589844 Z M -2.195312 98.683594 "/>
</clipPath>
<clipPath id="clip4">
  <path d="M 151.925781 74.023438 L 205.175781 74.023438 L 205.175781 299.773438 L 151.925781 299.773438 Z M 151.925781 74.023438 "/>
</clipPath>
<clipPath id="clip5">
  <path d="M 242.703125 74.894531 L 295.953125 74.894531 L 295.953125 300.644531 L 242.703125 300.644531 Z M 242.703125 74.894531 "/>
</clipPath>
<clipPath id="clip6">
  <path d="M 242.703125 247.625 L 371.703125 247.625 L 371.703125 300.875 L 242.703125 300.875 Z M 242.703125 247.625 "/>
</clipPath>
<clipPath id="clip7">
  <path d="M 9.328125 249.179688 L 58.078125 249.179688 L 58.078125 297.929688 L 9.328125 297.929688 Z M 9.328125 249.179688 "/>
</clipPath>
<clipPath id="clip8">
  <path d="M 244.90625 77.820312 L 293.65625 77.820312 L 293.65625 126.570312 L 244.90625 126.570312 Z M 244.90625 77.820312 "/>
</clipPath>
<clipPath id="clip9">
  <path d="M 7 74 L 205 74 L 205 301 L 7 301 Z M 7 74 "/>
</clipPath>
<clipPath id="clip10">
  <path d="M -2.996094 98.066406 L 37.886719 63.949219 L 215.6875 277.003906 L 174.804688 311.125 Z M -2.996094 98.066406 "/>
</clipPath>
<clipPath id="clip11">
  <path d="M 242.703125 247.625 L 371.703125 247.625 L 371.703125 300.875 L 242.703125 300.875 Z M 242.703125 247.625 "/>
</clipPath>
</defs>
<g id="surface1">
<g clip-path="url(#clip1)" clip-rule="nonzero">
<path style=" stroke:none;fill-rule:nonzero;fill:rgb(51.368713%,74.899292%,96.469116%);fill-opacity:1;" d="M 33.753906 74.902344 C 40.8125 74.902344 47.585938 77.695312 52.578125 82.660156 C 57.574219 87.628906 60.378906 94.363281 60.378906 101.390625 L 60.378906 274.144531 C 60.378906 288.773438 48.457031 300.632812 33.753906 300.632812 C 19.046875 300.632812 7.128906 288.773438 7.128906 274.144531 L 7.128906 101.390625 C 7.128906 86.761719 19.046875 74.902344 33.753906 74.902344 "/>
</g>
<g clip-path="url(#clip2)" clip-rule="nonzero">
<g clip-path="url(#clip3)" clip-rule="nonzero">
<path style=" stroke:none;fill-rule:nonzero;fill:rgb(51.368713%,74.899292%,96.469116%);fill-opacity:1;" d="M 18.253906 81.632812 C 23.675781 77.109375 30.664062 74.914062 37.683594 75.53125 C 44.707031 76.152344 51.179688 79.535156 55.6875 84.933594 L 198.53125 256.101562 C 207.917969 267.347656 206.371094 284.101562 195.082031 293.519531 C 183.792969 302.941406 167.03125 301.464844 157.648438 290.21875 L 14.804688 119.050781 C 5.417969 107.808594 6.964844 91.054688 18.253906 81.632812 "/>
</g>
</g>
<g clip-path="url(#clip4)" clip-rule="nonzero">
<path style=" stroke:none;fill-rule:nonzero;fill:rgb(51.368713%,74.899292%,96.469116%);fill-opacity:1;" d="M 178.550781 74.035156 C 185.613281 74.035156 192.386719 76.828125 197.378906 81.792969 C 202.371094 86.761719 205.175781 93.496094 205.175781 100.523438 L 205.175781 273.277344 C 205.175781 287.90625 193.257812 299.765625 178.550781 299.765625 C 163.847656 299.765625 151.925781 287.90625 151.925781 273.277344 L 151.925781 100.523438 C 151.925781 85.894531 163.847656 74.035156 178.550781 74.035156 "/>
</g>
<g clip-path="url(#clip5)" clip-rule="nonzero">
<path style=" stroke:none;fill-rule:nonzero;fill:rgb(96.469116%,51.368713%,51.368713%);fill-opacity:1;" d="M 269.328125 74.902344 C 276.390625 74.902344 283.160156 77.695312 288.15625 82.660156 C 293.148438 87.628906 295.953125 94.363281 295.953125 101.390625 L 295.953125 274.144531 C 295.953125 288.773438 284.03125 300.632812 269.328125 300.632812 C 254.625 300.632812 242.703125 288.773438 242.703125 274.144531 L 242.703125 101.390625 C 242.703125 86.761719 254.625 74.902344 269.328125 74.902344 "/>
</g>
<g clip-path="url(#clip6)" clip-rule="nonzero">
<path style=" stroke:none;fill-rule:nonzero;fill:rgb(96.469116%,51.368713%,51.368713%);fill-opacity:1;" d="M 242.707031 274.25 C 242.707031 267.1875 245.492188 260.414062 250.453125 255.421875 C 255.414062 250.429688 262.144531 247.625 269.160156 247.625 L 345.246094 247.625 C 352.261719 247.625 358.988281 250.429688 363.949219 255.421875 C 368.910156 260.414062 371.699219 267.1875 371.699219 274.25 C 371.699219 288.953125 359.855469 300.875 345.246094 300.875 L 269.160156 300.875 C 254.550781 300.875 242.707031 288.953125 242.707031 274.25 "/>
</g>
<g clip-path="url(#clip7)" clip-rule="nonzero">
<path style=" stroke:none;fill-rule:nonzero;fill:rgb(1.959229%,50.588989%,95.689392%);fill-opacity:1;" d="M 33.703125 249.179688 C 20.242188 249.179688 9.328125 260.09375 9.328125 273.554688 C 9.328125 287.019531 20.242188 297.929688 33.703125 297.929688 C 47.167969 297.929688 58.078125 287.019531 58.078125 273.554688 C 58.078125 260.09375 47.167969 249.179688 33.703125 249.179688 "/>
</g>
<g clip-path="url(#clip8)" clip-rule="nonzero">
<path style=" stroke:none;fill-rule:nonzero;fill:rgb(97.24884%,16.079712%,16.079712%);fill-opacity:1;" d="M 269.28125 77.820312 C 255.816406 77.820312 244.90625 88.730469 244.90625 102.195312 C 244.90625 115.65625 255.816406 126.570312 269.28125 126.570312 C 282.742188 126.570312 293.65625 115.65625 293.65625 102.195312 C 293.65625 88.730469 282.742188 77.820312 269.28125 77.820312 "/>
</g>
<g clip-path="url(#clip9)" clip-rule="nonzero">
<g clip-path="url(#clip10)" clip-rule="nonzero">
<path style=" stroke:none;fill-rule:nonzero;fill:rgb(1.959229%,50.588989%,95.689392%);fill-opacity:1;" d="M 17.449219 81.015625 C 22.871094 76.492188 29.863281 74.300781 36.886719 74.921875 C 43.910156 75.542969 50.386719 78.929688 54.898438 84.335938 L 198.675781 256.621094 C 208.066406 267.875 206.527344 284.636719 195.238281 294.058594 C 183.949219 303.480469 167.183594 301.992188 157.792969 290.738281 L 14.015625 118.453125 C 4.621094 107.199219 6.160156 90.4375 17.449219 81.015625 "/>
</g>
</g>
<g clip-path="url(#clip11)" clip-rule="nonzero">
<path style=" stroke:none;fill-rule:nonzero;fill:rgb(97.24884%,16.079712%,16.079712%);fill-opacity:1;" d="M 242.707031 274.25 C 242.707031 267.1875 245.492188 260.414062 250.453125 255.421875 C 255.414062 250.429688 262.144531 247.625 269.160156 247.625 L 345.246094 247.625 C 352.261719 247.625 358.988281 250.429688 363.949219 255.421875 C 368.910156 260.414062 371.699219 267.1875 371.699219 274.25 C 371.699219 288.953125 359.855469 300.875 345.246094 300.875 L 269.160156 300.875 C 254.550781 300.875 242.707031 288.953125 242.707031 274.25 "/>
</g>
</g>
</svg>
