<?xml version="1.0" encoding="utf-8"?>
<!-- Generator: Adobe Illustrator 24.1.1, SVG Export Plug-In . SVG Version: 6.00 Build 0)  -->
<svg version="1.1" id="Capa_1" xmlns="http://www.w3.org/2000/svg" xmlns:xlink="http://www.w3.org/1999/xlink" x="0px" y="0px"
	 viewBox="0 0 395.1 395.1" style="enable-background:new 0 0 395.1 395.1;" xml:space="preserve" fill="#fff">
<g>
	<g>
		<g id="Layer_5_85_">
			<path d="M266.5,198c0.6-2.7,0.9-5.5,0.9-8.4c0-23.2-19.9-42.1-44.4-42.1c-18.2,0-33.8,10.4-40.7,25.2c-5.3-3.3-11.6-5.2-18.3-5.2
				c-17.8,0-32.3,13.1-33.5,29.7c-9.6,4.2-16.3,13.3-16.3,24c0,14.6,12.5,26.4,27.8,26.4c0,0,30.2,0,40.2,0c2,0,2.1-2.1,2.1-2.1
				v-16.9c0-1.4-1.2-2.6-2.8-2.6h-7.6c-1.5,0-2-1-1.1-2.1l23.2-29.7c0.9-1.2,2.4-1.2,3.3,0l23.2,29.7c0.9,1.2,0.4,2.1-1.1,2.1h-7.6
				c-1.5,0-2.8,1.2-2.8,2.6v17c0,0,0.1,2,2.2,2c10,0,40.1,0,40.1,0c15.4,0,27.8-11.8,27.8-26.4C281,211.2,275.1,202.5,266.5,198z"/>
		</g>
	</g>
</g>
</svg>
